<svg viewBox="0 0 80 80" version="1.1" xmlns="http://www.w3.org/2000/svg">
    <path fill="currentColor" d="M23.166,0c-12.706,0.019 -23.155,10.473 -23.166,23.179l0,33.1c0.018,12.707 10.472,23.157 23.179,23.168l33.1,0c12.707,-0.018 23.156,-10.471 23.168,-23.178l0,-33.1c-0.017,-12.707 -10.471,-23.157 -23.178,-23.169l-33.103,-0Zm39.734,13.241c1.816,0 3.31,1.494 3.31,3.31c0,1.816 -1.494,3.31 -3.31,3.31c-1.816,0 -3.31,-1.494 -3.31,-3.31c0.001,-1.815 1.495,-3.309 3.31,-3.31Zm-23.176,6.621c10.896,-0 19.862,8.966 19.862,19.862c-0,10.896 -8.966,19.862 -19.862,19.862c-10.896,-0 -19.862,-8.966 -19.862,-19.862c0.011,-10.892 8.97,-19.851 19.862,-19.862Zm-0,6.621c-7.264,-0 -13.241,5.977 -13.241,13.241c0,7.264 5.977,13.241 13.241,13.241c7.264,-0 13.241,-5.977 13.241,-13.241c0,-0 0,-0.001 0,-0.001c0,-7.264 -5.977,-13.241 -13.241,-13.241c-0,-0 -0,0.001 -0,0.001Z"/>
</svg>
